<svg version="1.1" xmlns="http://www.w3.org/2000/svg" width="1024" height="1024" viewBox="0 0 1024 1024">
<path d="M1022.976 301.056c-2.368-54.4-11.2-91.84-23.808-124.224-13.569-35.559-33.712-65.863-59.156-90.773l-0.044-0.043c-24.948-25.339-55.173-45.404-88.902-58.423l-1.722-0.585c-32.64-12.608-69.76-21.44-124.16-23.808-54.912-2.56-72.384-3.2-211.264-3.2-139.072 0-156.48 0.64-211.072 3.008-54.4 2.368-91.776 11.2-124.16 23.808-35.584 13.559-65.911 33.704-90.838 59.157l-0.042 0.043c-25.336 24.951-45.4 55.175-58.423 88.901l-0.585 1.723c-12.608 32.64-21.376 69.76-23.808 124.16-2.56 54.848-3.2 72.32-3.2 211.264 0 139.072 0.64 156.48 3.008 211.072 2.368 54.4 11.2 91.84 23.808 124.224 12.992 34.432 33.216 65.216 59.2 90.88 25.6 25.92 56.64 46.144 90.624 58.944 32.64 12.608 69.76 21.44 124.224 23.808 54.592 2.432 72 3.008 211.072 3.008 139.008 0 156.416-0.64 211.008-3.008 54.4-2.368 91.84-11.2 124.224-23.808 69.004-27.188 122.608-80.772 149.205-147.987l0.619-1.773c12.608-32.64 21.44-69.888 23.808-124.288 2.432-54.592 3.008-72 3.008-211.008 0-139.072-0.192-156.48-2.56-211.072zM930.816 719.104c-2.24 50.048-10.624 77.056-17.664 95.040-17.63 44.811-52.42 79.621-96.065 96.879l-1.151 0.401c-17.984 6.976-45.184 15.36-94.976 17.536-54.016 2.432-70.208 3.008-206.848 3.008s-153.024-0.64-206.848-3.008c-50.048-2.176-77.056-10.56-95.040-17.6-23.072-8.61-42.723-21.634-58.779-38.169l-0.037-0.039c-16.529-16.122-29.545-35.763-37.845-57.721l-0.363-1.095c-7.040-17.984-15.36-45.184-17.6-94.976-2.368-54.016-3.008-70.272-3.008-206.848 0-136.64 0.64-153.024 3.008-206.848 2.24-50.048 10.624-76.992 17.6-95.040 8.192-22.208 21.248-42.368 38.4-58.816 16.64-16.96 36.608-30.016 58.88-38.208 17.92-7.040 45.184-15.36 94.976-17.6 54.016-2.368 70.208-3.008 206.848-3.008 136.832 0 152.96 0.64 206.848 3.008 49.984 2.24 76.992 10.624 94.976 17.6 22.208 8.192 42.432 21.248 58.88 38.208 16.96 16.64 29.952 36.608 38.144 58.88 7.040 17.92 15.424 45.184 17.6 94.976 2.432 54.016 3.008 70.208 3.008 206.848s-0.576 152.64-2.944 206.656z"></path>
<path d="M513.92 249.024c-142.79 3.25-257.301 119.772-257.301 263.040s114.511 259.79 256.999 263.035l0.302 0.005c142.79-3.25 257.301-119.772 257.301-263.040s-114.511-259.79-256.999-263.035l-0.302-0.005zM513.92 682.752c-94.268 0-170.688-76.42-170.688-170.688s76.42-170.688 170.688-170.688v0c94.268 0 170.688 76.42 170.688 170.688s-76.42 170.688-170.688 170.688v0zM848.768 238.656c0 33.932-27.508 61.44-61.44 61.44s-61.44-27.508-61.44-61.44v0c0-33.932 27.508-61.44 61.44-61.44s61.44 27.508 61.44 61.44v0z"></path>
</svg>
