<svg version="1.1" xmlns="http://www.w3.org/2000/svg" width="1024" height="1024" viewBox="0 0 1024 1024">
<path d="M1023.744 1024h0.256v-375.68c0-183.68-39.552-325.248-254.336-325.248-103.232 0-172.544 56.704-200.832 110.4h-3.008v-93.184h-203.584v683.712h212.096v-338.56c0-89.152 16.896-175.36 127.232-175.36 108.8 0 110.4 101.76 110.4 181.12v332.8h211.84zM16.896 340.352h212.288v683.648h-212.288v-683.648zM122.944 0c-67.84 0-122.88 55.040-122.88 122.88s55.040 124.16 122.88 124.16c67.904 0 123.008-56.32 123.008-124.16s-55.232-122.88-123.072-122.88z"></path>
</svg>
